<svg width="24" height="24" viewBox="0 0 24 24" fill="none" xmlns="http://www.w3.org/2000/svg">
<path d="M16.1752 13L11.2752 17.9C11.0752 18.1 10.9792 18.3334 10.9872 18.6C10.9952 18.8667 11.0995 19.1 11.3002 19.3C11.5002 19.4834 11.7335 19.5794 12.0002 19.588C12.2668 19.5967 12.5002 19.5007 12.7002 19.3L19.3002 12.7C19.4002 12.6 19.4712 12.4917 19.5132 12.375C19.5552 12.2584 19.5755 12.1334 19.5742 12C19.5728 11.8667 19.5518 11.7417 19.5112 11.625C19.4705 11.5084 19.3998 11.4 19.2992 11.3L12.6992 4.70005C12.5158 4.51672 12.2865 4.42505 12.0112 4.42505C11.7358 4.42505 11.4985 4.51672 11.2992 4.70005C11.0992 4.90005 10.9992 5.13772 10.9992 5.41305C10.9992 5.68838 11.0992 5.92572 11.2992 6.12505L16.1752 11H5.00016C4.71682 11 4.47916 11.096 4.28716 11.288C4.09516 11.48 3.99949 11.7174 4.00016 12C4.00082 12.2827 4.09682 12.5204 4.28816 12.713C4.47949 12.9057 4.71682 13.0014 5.00016 13H16.1752Z" fill="#153A4D"/>
</svg>
