<svg width="32" height="32" viewBox="0 0 32 32" fill="none" xmlns="http://www.w3.org/2000/svg">
<path fill-rule="evenodd" clip-rule="evenodd" d="M15.9999 18.8293L8.92921 25.9C8.55402 26.2752 8.04515 26.486 7.51454 26.486C6.98394 26.486 6.47507 26.2752 6.09988 25.9C5.72469 25.5248 5.5139 25.0159 5.5139 24.4853C5.5139 23.9547 5.72469 23.4459 6.09988 23.0707L13.1732 16L6.10121 8.92933C5.91552 8.74355 5.76824 8.52302 5.66778 8.28032C5.56732 8.03763 5.51565 7.77752 5.51571 7.51486C5.51577 7.25219 5.56757 6.99211 5.66814 6.74946C5.76872 6.50681 5.9161 6.28635 6.10188 6.10066C6.28765 5.91497 6.50819 5.76769 6.75088 5.66723C6.99358 5.56677 7.25368 5.5151 7.51635 5.51516C7.77902 5.51522 8.0391 5.56702 8.28175 5.66759C8.52439 5.76817 8.74486 5.91555 8.93054 6.10133L15.9999 13.172L23.0705 6.10133C23.2549 5.91022 23.4756 5.75776 23.7195 5.65282C23.9635 5.54789 24.2259 5.4926 24.4915 5.49017C24.757 5.48773 25.0204 5.53821 25.2662 5.63866C25.5121 5.7391 25.7354 5.88751 25.9233 6.0752C26.1112 6.2629 26.2598 6.48613 26.3605 6.73188C26.4612 6.97762 26.5119 7.24095 26.5097 7.50651C26.5075 7.77207 26.4525 8.03453 26.3478 8.27859C26.2431 8.52265 26.0908 8.74341 25.8999 8.92799L18.8265 16L25.8985 23.072C26.0895 23.2566 26.2417 23.4773 26.3464 23.7214C26.4511 23.9655 26.5062 24.2279 26.5084 24.4935C26.5105 24.759 26.4598 25.0224 26.3591 25.2681C26.2585 25.5139 26.1099 25.7371 25.922 25.9248C25.7341 26.1125 25.5107 26.2609 25.2649 26.3613C25.0191 26.4618 24.7557 26.5123 24.4901 26.5098C24.2246 26.5074 23.9621 26.4521 23.7182 26.3472C23.4742 26.2422 23.2536 26.0898 23.0692 25.8987L15.9999 18.8293Z" fill="#D0D0D0"/>
</svg>
