<svg width="36" height="36" viewBox="0 0 36 36" fill="none" xmlns="http://www.w3.org/2000/svg">
<rect width="36" height="36" rx="8" fill="#C60000" fill-opacity="0.08"/>
<path fill-rule="evenodd" clip-rule="evenodd" d="M19.71 10.5C20.0248 10.5001 20.3316 10.5992 20.587 10.7834C20.8423 10.9675 21.0333 11.2273 21.1327 11.526L21.54 12.75H24C24.1989 12.75 24.3897 12.829 24.5303 12.9697C24.671 13.1103 24.75 13.3011 24.75 13.5C24.75 13.6989 24.671 13.8897 24.5303 14.0303C24.3897 14.171 24.1989 14.25 24 14.25L23.9977 14.3033L23.3475 23.4105C23.3069 23.978 23.0529 24.509 22.6365 24.8967C22.2202 25.2844 21.6724 25.4999 21.1035 25.5H14.8965C14.3276 25.4999 13.7798 25.2844 13.3635 24.8967C12.9471 24.509 12.6931 23.978 12.6525 23.4105L12.0022 14.3025L12 14.25C11.8011 14.25 11.6103 14.171 11.4697 14.0303C11.329 13.8897 11.25 13.6989 11.25 13.5C11.25 13.3011 11.329 13.1103 11.4697 12.9697C11.6103 12.829 11.8011 12.75 12 12.75H14.46L14.8672 11.526C14.9668 11.2272 15.1578 10.9673 15.4133 10.7831C15.6688 10.599 15.9758 10.4999 16.2907 10.5H19.71ZM15.75 16.5C15.5663 16.5 15.389 16.5675 15.2517 16.6895C15.1144 16.8116 15.0267 16.9798 15.0052 17.1623L15 17.25V21.75C15.0002 21.9412 15.0734 22.125 15.2046 22.264C15.3359 22.403 15.5152 22.4867 15.706 22.4979C15.8969 22.5091 16.0848 22.447 16.2314 22.3243C16.378 22.2016 16.4722 22.0276 16.4948 21.8378L16.5 21.75V17.25C16.5 17.0511 16.421 16.8603 16.2803 16.7197C16.1397 16.579 15.9489 16.5 15.75 16.5ZM20.25 16.5C20.0511 16.5 19.8603 16.579 19.7197 16.7197C19.579 16.8603 19.5 17.0511 19.5 17.25V21.75C19.5 21.9489 19.579 22.1397 19.7197 22.2803C19.8603 22.421 20.0511 22.5 20.25 22.5C20.4489 22.5 20.6397 22.421 20.7803 22.2803C20.921 22.1397 21 21.9489 21 21.75V17.25C21 17.0511 20.921 16.8603 20.7803 16.7197C20.6397 16.579 20.4489 16.5 20.25 16.5ZM19.71 12H16.29L16.0402 12.75H19.9598L19.71 12Z" fill="#C60000"/>
</svg>
