<svg width="36" height="36" viewBox="0 0 36 36" fill="none" xmlns="http://www.w3.org/2000/svg">
<rect width="36" height="36" rx="8" fill="#F1F1F3"/>
<path d="M19.587 13.5195L12.1591 20.948C12.1217 20.9855 12.095 21.0323 12.0819 21.0836L11.2586 24.3882C11.2465 24.4373 11.2472 24.4886 11.2607 24.5373C11.2742 24.586 11.3001 24.6303 11.3358 24.6661C11.3905 24.7207 11.4647 24.7514 11.5421 24.7514C11.5659 24.7514 11.5897 24.7485 11.6129 24.7427L14.9175 23.9192C14.9689 23.9063 15.0158 23.8797 15.0532 23.8421L22.4818 16.4142L19.587 13.5195ZM24.322 12.5066L23.4951 11.6798C22.9425 11.1272 21.9793 11.1277 21.4273 11.6798L20.4145 12.6927L23.3091 15.5873L24.322 14.5744C24.598 14.2985 24.7501 13.9312 24.7501 13.5406C24.7501 13.15 24.598 12.7827 24.322 12.5066Z" fill="#3D3C48"/>
</svg>
