<svg width="18" height="18" viewBox="0 0 18 18" fill="none" xmlns="http://www.w3.org/2000/svg">
<path d="M10.587 4.51957L3.1591 11.948C3.12169 11.9855 3.09504 12.0324 3.0819 12.0837L2.25857 15.3883C2.24646 15.4374 2.2472 15.4887 2.26072 15.5374C2.27424 15.5861 2.30009 15.6304 2.33576 15.6662C2.39055 15.7208 2.46473 15.7515 2.54208 15.7515C2.56595 15.7515 2.58972 15.7486 2.61286 15.7428L5.91749 14.9193C5.96887 14.9064 6.01577 14.8798 6.05317 14.8422L13.4818 7.41428L10.587 4.51957ZM15.322 3.50671L14.4951 2.67989C13.9425 2.12726 12.9793 2.12781 12.4273 2.67989L11.4145 3.69275L14.3091 6.58735L15.322 5.57451C15.598 5.29859 15.7501 4.93129 15.7501 4.54068C15.7501 4.15006 15.598 3.78277 15.322 3.50671Z" fill="#3D3C48"/>
</svg>
