<svg width="36" height="36" viewBox="0 0 36 36" fill="none" xmlns="http://www.w3.org/2000/svg">
<rect width="36" height="36" rx="8" fill="#F0F6FF"/>
<g opacity="0.5">
<path d="M9.74952 14.6256C9.74952 14.6254 9.74936 14.6253 9.74915 14.6253C9.55024 14.6252 9.3595 14.5461 9.21884 14.4054C9.07809 14.2647 8.99902 14.0738 8.99902 13.8748V12.7497C8.99961 12.1532 9.23685 11.5812 9.65869 11.1594C10.0805 10.7375 10.6525 10.5003 11.2491 10.4997H12.3741C12.5731 10.4997 12.764 10.5788 12.9048 10.7195C13.0455 10.8603 13.1246 11.0511 13.1246 11.2502C13.1246 11.4492 13.0455 11.6401 12.9048 11.7809C12.764 11.9216 12.5731 12.0007 12.3741 12.0007H11.2491C11.0501 12.0009 10.8593 12.08 10.7186 12.2207C10.5779 12.3614 10.4988 12.5522 10.4986 12.7512V13.877C10.4986 13.9753 10.4792 14.0727 10.4415 14.1636C10.4039 14.2545 10.3487 14.3371 10.2792 14.4066C10.2096 14.4762 10.127 14.5313 10.0362 14.569C9.94541 14.6066 9.84813 14.626 9.7499 14.626C9.74969 14.626 9.74952 14.6258 9.74952 14.6256Z" fill="#63A4F9"/>
<path d="M26.2506 14.6268C26.0515 14.6268 25.8606 14.5477 25.7199 14.4069C25.5791 14.2662 25.5001 14.0753 25.5001 13.8763V12.7505C25.4999 12.5515 25.4207 12.3607 25.28 12.22C25.1393 12.0793 24.9485 12.0002 24.7496 12H23.6245C23.4255 12 23.2346 11.9209 23.0939 11.7802C22.9531 11.6394 22.874 11.4485 22.874 11.2495C22.874 11.0504 22.9531 10.8595 23.0939 10.7188C23.2346 10.578 23.4255 10.499 23.6245 10.499H24.7496C25.3461 10.4995 25.9181 10.7368 26.3399 11.1586C26.7618 11.5805 26.999 12.1524 26.9996 12.749V13.874C27 13.9727 26.9809 14.0704 26.9435 14.1617C26.906 14.253 26.8509 14.3359 26.7813 14.4059C26.7117 14.4758 26.629 14.5313 26.538 14.5692C26.4469 14.6071 26.3492 14.6267 26.2506 14.6268Z" fill="#63A4F9"/>
<path d="M12.3741 25.501H11.2491C10.6525 25.5004 10.0805 25.2632 9.65869 24.8413C9.23685 24.4195 8.99961 23.8475 8.99902 23.251V22.1259C8.99902 21.9269 9.07809 21.736 9.21884 21.5952C9.35959 21.4545 9.55048 21.3754 9.74952 21.3754C9.94857 21.3754 10.1395 21.4545 10.2802 21.5952C10.421 21.736 10.5 21.9269 10.5 22.1259V23.251C10.5002 23.4499 10.5794 23.6407 10.7201 23.7814C10.8608 23.9221 11.0516 24.0013 11.2505 24.0015H12.3756C12.5744 24.0015 12.7651 24.0805 12.9057 24.2211C13.0463 24.3617 13.1253 24.5524 13.1253 24.7512C13.1253 24.9501 13.0463 25.1408 12.9057 25.2814C12.7651 25.422 12.5744 25.501 12.3756 25.501H12.3741Z" fill="#63A4F9"/>
<path d="M24.7496 25.501H23.6245C23.4255 25.501 23.2346 25.4219 23.0938 25.2812C22.9531 25.1404 22.874 24.9495 22.874 24.7505C22.874 24.5515 22.9531 24.3606 23.0938 24.2198C23.2346 24.0791 23.4255 24 23.6245 24H24.7496C24.9485 23.9998 25.1393 23.9207 25.28 23.78C25.4207 23.6392 25.4999 23.4485 25.5001 23.2495V22.1245C25.5001 21.9254 25.5791 21.7345 25.7199 21.5938C25.8606 21.453 26.0515 21.374 26.2506 21.374C26.4496 21.374 26.6405 21.453 26.7813 21.5938C26.922 21.7345 27.0011 21.9254 27.0011 22.1245V23.2495C27.0003 23.8464 26.7628 24.4186 26.3408 24.8407C25.9187 25.2628 25.3465 25.5002 24.7496 25.501Z" fill="#63A4F9"/>
</g>
<path d="M17.9983 13.4478C16.6501 13.4071 15.3274 13.8205 14.2423 14.6217C13.1572 15.4229 12.3728 16.5654 12.015 17.8659C11.9924 17.9546 11.9924 18.0475 12.015 18.1362C12.4104 19.4142 13.2047 20.5319 14.2813 21.3258C15.358 22.1196 16.6606 22.5479 17.9983 22.5479C19.3361 22.5479 20.6386 22.1196 21.7153 21.3258C22.792 20.5319 23.5862 19.4142 23.9817 18.1362C24.0043 18.0475 24.0043 17.9546 23.9817 17.8659C23.6237 16.5655 22.8393 15.423 21.7542 14.6218C20.6692 13.8207 19.3465 13.4072 17.9983 13.4478ZM17.9983 20.2511C17.5533 20.2511 17.1183 20.1191 16.7483 19.8719C16.3783 19.6247 16.0899 19.2733 15.9196 18.8621C15.7493 18.451 15.7047 17.9986 15.7915 17.5621C15.8783 17.1256 16.0926 16.7247 16.4073 16.41C16.722 16.0954 17.1229 15.8811 17.5594 15.7942C17.9958 15.7074 18.4482 15.752 18.8594 15.9223C19.2705 16.0926 19.6219 16.381 19.8692 16.751C20.1164 17.121 20.2484 17.556 20.2484 18.0011C20.2466 18.5973 20.009 19.1686 19.5874 19.5901C19.1658 20.0117 18.5945 20.2493 17.9983 20.2511Z" fill="#63A4F9"/>
</svg>
